<svg width="62" height="28" viewBox="0 0 62 28" fill="none" xmlns="http://www.w3.org/2000/svg">
<path d="M11.1505 12.8611C12.0575 13.3495 12.0575 14.6505 11.1505 15.1389L2.17238 19.9733C1.31061 20.4373 0.265625 19.8132 0.265625 18.8344L0.265626 9.16561C0.265626 8.18685 1.31061 7.56268 2.17238 8.02671L11.1505 12.8611Z" fill="white"/>
<path d="M22.6324 19.5V14.73H25.9624C28.3384 14.73 29.7244 13.074 29.7244 11.112C29.7244 9.15 28.3744 7.494 25.9624 7.494H21.1384V19.5H22.6324ZM25.7824 13.398H22.6324V8.826H25.7824C27.2044 8.826 28.1764 9.762 28.1764 11.112C28.1764 12.462 27.2044 13.398 25.7824 13.398ZM38.7768 19.5V18.168H33.1968V7.494H31.7028V19.5H38.7768ZM51.1566 19.5L46.3146 7.494H44.4606L39.6366 19.5H41.3466L42.4086 16.836H48.3846L49.4466 19.5H51.1566ZM47.9346 15.504H42.8406L45.3966 9.042L47.9346 15.504ZM56.5697 19.5V14.424L61.2857 7.494H59.5397L55.8137 13.074L52.0877 7.494H50.3417L55.0757 14.424V19.5H56.5697Z" fill="white"/>
</svg>
